Coordinates
version=1
nRows=17
nColumns=40
inDegrees=yes

Units are S.I. units (second, meters, Newtons, ...)
Angles are in degrees.

endheader
time	pelvis_tilt	pelvis_list	pelvis_rotation	pelvis_tx	pelvis_ty	pelvis_tz	hip_flexion_r	hip_adduction_r	hip_rotation_r	knee_angle_r	knee_angle_r_beta	ankle_angle_r	subtalar_angle_r	mtp_angle_r	hip_flexion_l	hip_adduction_l	hip_rotation_l	knee_angle_l	knee_angle_l_beta	ankle_angle_l	subtalar_angle_l	mtp_angle_l	lumbar_extension	lumbar_bending	lumbar_rotation	arm_flex_r	arm_add_r	arm_rot_r	elbow_flex_r	pro_sup_r	wrist_flex_r	wrist_dev_r	arm_flex_l	arm_add_l	arm_rot_l	elbow_flex_l	pro_sup_l	wrist_flex_l	wrist_dev_l
     24.59250000	     -5.57795966	     -4.34717150	      3.83799147	      1.07857528	      0.92262312	      0.44549337	      5.74688207	     -3.73862634	    -12.84698475	     29.33943057	     29.33943057	     14.25647475	     -0.95371427	    -11.53294166	     26.10085712	     -5.61636869	     -0.81277307	     26.40471664	     26.40471664	      8.30075689	    -14.82227752	      5.47911937	     -9.23814304	      2.51546966	      1.65111915	     19.94528004	    -12.82245830	     13.24258482	     55.47593287	     45.70346612	      0.00000000	      0.00000000	     -0.09770133	    -11.23440911	    -14.14201535	     36.76207362	     45.55079600	      0.00000000	      0.00000000
     24.60600000	     -5.52136397	     -4.34477071	      3.64065252	      1.07917008	      0.92317767	      0.44233648	      7.02642456	     -4.36398890	    -12.25032603	     32.26955391	     32.26955391	     12.32584873	     -2.35650965	    -14.91383859	     25.54746170	     -5.52143127	     -1.08930237	     26.40114104	     26.40114104	      8.71037856	    -14.72035815	      5.20899680	     -9.31849861	      2.53853429	      1.56706169	     18.95381632	    -12.60552298	     13.16755630	     51.47004208	     45.81066194	      0.00000000	      0.00000000	     -0.24140148	    -11.47132148	    -13.61625675	     38.59392663	     45.57172869	      0.00000000	      0.00000000
     24.61950000	     -5.47820061	     -4.31269656	      3.41738387	      1.07958814	      0.92358401	      0.43927293	      8.60993122	     -5.07673201	    -11.62686717	     35.73876082	     35.73876082	     11.03857590	     -3.17279515	    -15.76862964	     24.99617617	     -5.41191573	     -1.43422986	     26.37179678	     26.37179678	      9.11023516	    -14.58262063	      4.96383933	     -9.42766889	      2.55728305	      1.91308623	     17.19986876	    -13.05182395	     13.23376401	     49.50254637	     45.86321481	      0.00000000	      0.00000000	      0.32288103	    -11.55380625	    -13.59110696	     39.38573962	     45.59204560	      0.00000000	      0.00000000
     24.63300000	     -5.31079164	     -4.21627147	      3.21882200	      1.07981179	      0.92388107	      0.43629909	     10.23357967	     -5.83159860	    -10.91627900	     39.42031439	     39.42031439	      9.48802916	     -4.16348112	    -16.52817596	     24.38535264	     -5.25204780	     -1.80727346	     26.47451216	     26.47451216	      9.56577324	    -14.44395489	      4.65038448	     -9.72071600	      2.52339040	      2.01967469	     15.71207526	    -13.39200211	     13.19165879	     47.53158346	     45.92479353	      0.00000000	      0.00000000	      0.89902505	    -11.73470387	    -13.53898400	     40.18602527	     45.60545467	      0.00000000	      0.00000000
     24.64650000	     -5.25502131	     -4.32936887	      3.01031446	      1.07993984	      0.92404195	      0.43374288	     11.92145733	     -6.12906677	     -9.92669634	     42.65423373	     42.65423373	      6.43207711	     -6.60467223	    -20.06972184	     23.90264389	     -5.36796809	     -2.21893475	     26.52674434	     26.52674434	      9.92690897	    -14.06315955	      3.83900573	     -9.73161758	      2.65772089	      1.37835422	     16.17304834	    -11.97978388	     11.16923759	     39.74272534	     46.27475165	      0.00000000	      0.00000000	      0.03955207	    -12.43105969	    -12.19669138	     43.11580173	     45.55172263	      0.00000000	      0.00000000
     24.66000000	     -5.13557938	     -4.34024964	      2.80014579	      1.07986260	      0.92406660	      0.43114098	     13.78734277	     -6.59204011	     -9.03321209	     46.35076311	     46.35076311	      4.42991052	     -7.88492698	    -20.12942633	     23.40980796	     -5.35694453	     -2.60550036	     26.68824323	     26.68824323	     10.40160922	    -13.83650437	      3.46265950	     -9.94483222	      2.73142323	      1.59264275	     14.66952205	    -12.38934131	     10.70989522	     37.61721111	     46.35313902	      0.00000000	      0.00000000	      0.59578288	    -12.64306348	    -12.07164812	     44.29057651	     45.58598136	      0.00000000	      0.00000000
     24.67350000	     -4.97896769	     -4.23228481	      2.63813245	      1.07963608	      0.92410432	      0.42850032	     15.64095417	     -7.23100773	     -8.32988595	     49.97590201	     49.97590201	      2.38455990	     -8.73418979	    -19.90317857	     22.85399888	     -5.18993576	     -2.94405838	     26.79243860	     26.79243860	     10.86087699	    -13.64087985	      3.17782996	    -10.21558192	      2.72057339	      1.32816639	     13.27205361	    -12.76326415	     10.54098058	     36.32936911	     46.39803150	      0.00000000	      0.00000000	      1.07756520	    -13.00792805	    -12.07485488	     44.91065368	     45.60606891	      0.00000000	      0.00000000
     24.68700000	     -4.86151410	     -4.14971017	      2.48170491	      1.07921966	      0.92403723	      0.42605122	     17.56466524	     -7.70566882	     -7.52592974	     53.42280851	     53.42280851	      0.29024028	     -9.81396441	    -19.26157290	     22.40129027	     -5.07061061	     -3.31304299	     26.96901909	     26.96901909	     11.31431626	    -13.39329464	      2.86399640	    -10.43525921	      2.69751064	      1.17432630	     11.87289899	    -13.25820682	     10.31558518	     34.82230904	     46.45622630	      0.00000000	      0.00000000	      1.67018994	    -13.36101177	    -12.03806458	     45.72582874	     45.62441552	      0.00000000	      0.00000000
     24.70050000	     -4.73840513	     -4.29740551	      2.30209346	      1.07879527	      0.92408323	      0.42402698	     19.51162096	     -7.78314904	     -6.75211316	     56.77249182	     56.77249182	     -0.61840594	    -10.16497472	    -15.08025325	     21.97543779	     -5.32360066	     -3.90406475	     27.19274718	     27.19274718	     11.96665878	    -12.50694706	      2.37040781	    -10.58603073	      2.90362534	      0.71302641	     11.96170850	    -12.62541139	      7.38069007	     29.29988939	     46.82432639	      0.00000000	      0.00000000	      1.22217746	    -14.25759784	    -10.31817739	     48.46372493	     45.57342625	      0.00000000	      0.00000000
     24.71400000	     -4.61289689	     -4.30646819	      2.13110104	      1.07820703	      0.92423113	      0.42195986	     21.36153184	     -8.03359543	     -6.14238326	     59.71182553	     59.71182553	     -1.54165544	    -10.41465891	    -11.62361467	     21.49415186	     -5.32587824	     -4.24563316	     27.29884262	     27.29884262	     12.48993995	    -12.16256337	      2.27788026	    -10.80823092	      2.98736675	      0.72945324	     10.59827280	    -12.93881201	      4.76262090	     27.79164361	     47.00201694	      0.00000000	      0.00000000	      1.97236887	    -14.61869988	     -9.98189749	     49.22580010	     45.67210628	      0.00000000	      0.00000000
     24.72750000	     -4.51217645	     -4.25661324	      1.95910011	      1.07754109	      0.92449592	      0.42000905	     23.04254649	     -8.32164032	     -5.66696052	     62.01280612	     62.01280612	     -3.10528182	    -11.17608734	    -10.97508976	     20.97508784	     -5.23168286	     -4.51177813	     27.26596758	     27.26596758	     12.83490552	    -12.03225932	      2.14018623	    -10.97858024	      2.99752063	      0.28764463	      9.33946933	    -13.50606874	      4.55528988	     27.09376855	     47.03035465	      0.00000000	      0.00000000	      2.58112570	    -15.04961106	    -10.08500840	     49.62914777	     45.70126767	      0.00000000	      0.00000000
     24.74100000	     -4.46257335	     -4.32038863	      1.73289996	      1.07684020	      0.92487048	      0.41841488	     24.67686615	     -8.34060819	     -5.20544363	     63.85319174	     63.85319174	     -4.16710600	    -11.89878733	     -9.69830981	     20.47989822	     -5.32314948	     -4.90857354	     27.17797393	     27.17797393	     13.22919593	    -11.64777074	      1.95935471	    -11.08760346	      3.12370808	      0.19898894	      8.00173373	    -14.13257221	      4.19375140	     26.20892023	     47.07567249	      0.00000000	      0.00000000	      3.29736539	    -15.32621023	    -10.05793250	     50.30043846	     45.72773926	      0.00000000	      0.00000000
     24.75450000	     -4.33098410	     -4.45745145	      1.50857582	      1.07618003	      0.92550806	      0.41713122	     26.20192717	     -8.33005875	     -5.01055201	     65.51109985	     65.51109985	     -3.23892814	    -11.27890465	     -4.08950477	     19.89480568	     -5.58767279	     -5.52873176	     27.11642298	     27.11642298	     13.79226574	    -10.75141600	      1.84682581	    -11.29554210	      3.29742275	      0.12574267	      6.84583775	    -14.48082603	      1.51520808	     25.12240754	     47.26619638	      0.00000000	      0.00000000	      3.91335789	    -16.02561534	     -8.72070052	     51.16950511	     45.73161158	      0.00000000	      0.00000000
     24.76800000	     -4.25564083	     -4.54195780	      1.27443147	      1.07545933	      0.92630134	      0.41593327	     27.43487219	     -8.35040875	     -4.95635020	     66.19359190	     66.19359190	     -3.77869936	    -11.63707875	     -3.89718733	     19.25828180	     -5.65146178	     -5.74761755	     26.79906551	     26.79906551	     14.03302124	    -10.65595771	      1.83482637	    -11.42210945	      3.41326900	     -0.41025803	      5.85404773	    -15.05739779	      1.33385353	     24.67322861	     47.28760138	      0.00000000	      0.00000000	      4.47160622	    -16.48749707	     -8.85410981	     51.43787297	     45.75826643	      0.00000000	      0.00000000
     24.78150000	     -4.19970271	     -4.62248330	      0.92192999	      1.07473428	      0.92725154	      0.41524139	     28.58812635	     -8.17822811	     -4.78693981	     66.37014939	     66.37014939	     -3.94845728	    -12.08747458	     -3.37445367	     18.54434839	     -5.82450611	     -6.33464642	     26.35304830	     26.35304830	     14.30076414	    -10.12839407	      1.70571779	    -11.55733069	      3.46812216	     -0.29674180	      4.60124916	    -15.61404614	      0.79048048	     24.17765466	     47.32921034	      0.00000000	      0.00000000	      5.31272458	    -16.70245419	     -8.82811045	     52.06030885	     45.79322899	      0.00000000	      0.00000000
     24.79500000	     -4.22502356	     -4.76096160	      0.60778354	      1.07400821	      0.92819845	      0.41469174	     29.60935746	     -8.02549740	     -4.90766728	     65.93325906	     65.93325906	     -3.93164465	    -12.19270077	     -3.20350307	     17.90564446	     -5.98904984	     -6.66406653	     25.85532144	     25.85532144	     14.50303569	     -9.90812212	      1.69809716	    -11.54831697	      3.60405511	     -0.78398314	      3.73439928	    -16.06765191	      0.55670982	     23.90155010	     47.34822357	      0.00000000	      0.00000000	      5.81700930	    -17.17870528	     -8.88360926	     52.31100151	     45.81327462	      0.00000000	      0.00000000
     24.80850000	     -4.18019000	     -4.88988710	      0.19402384	      1.07335227	      0.92935243	      0.41456531	     30.38281344	     -7.74427583	     -4.98029837	     64.92122058	     64.92122058	     -3.60950155	    -12.19210368	     -2.67514049	     17.10591149	     -6.27072464	     -7.42467176	     25.26674494	     25.26674494	     14.71383836	     -9.09220390	      1.32843788	    -11.69398127	      3.67463143	     -0.55861740	      2.42866564	    -16.48773759	     -0.63842713	     24.10591935	     47.40008091	      0.00000000	      0.00000000	      6.64214628	    -17.49463705	     -8.42479655	     52.92186988	     45.83109051	      0.00000000	      0.00000000
